<?xml version="1.0" standalone="no"?>
<!DOCTYPE svg PUBLIC "-//W3C//DTD SVG 20010904//EN"
 "http://www.w3.org/TR/2001/REC-SVG-20010904/DTD/svg10.dtd">
<svg version="1.0" xmlns="http://www.w3.org/2000/svg"
 width="512.000000pt" height="512.000000pt" viewBox="0 0 512.000000 512.000000"
 preserveAspectRatio="xMidYMid meet">
<metadata>
Created by potrace 1.14, written by Peter Selinger 2001-2017
</metadata>
<g transform="translate(0.000000,512.000000) scale(0.100000,-0.100000)"
fill="#000000" stroke="none">
<path d="M2305 5110 c-11 -5 -48 -9 -82 -9 -34 -1 -64 -5 -67 -9 -3 -5 -26 -9
-52 -11 -26 -1 -55 -6 -65 -12 -10 -5 -28 -9 -40 -9 -12 0 -36 -4 -53 -9 -17
-6 -71 -22 -121 -36 -107 -31 -219 -71 -267 -96 -10 -5 -25 -9 -33 -9 -8 0
-15 -4 -15 -10 0 -5 -6 -10 -14 -10 -21 0 -225 -109 -303 -162 -23 -15 -46
-28 -51 -28 -6 0 -12 -4 -14 -8 -1 -5 -25 -23 -53 -42 -27 -19 -60 -45 -73
-57 -13 -13 -27 -23 -31 -23 -5 0 -22 -12 -39 -27 -17 -16 -56 -50 -87 -78
-72 -63 -127 -118 -190 -190 -27 -31 -62 -70 -77 -87 -16 -17 -28 -34 -28 -39
0 -4 -11 -19 -25 -33 -14 -14 -25 -30 -25 -36 0 -5 -4 -10 -10 -10 -5 0 -10
-7 -10 -15 0 -8 -4 -15 -10 -15 -5 0 -10 -6 -10 -14 0 -8 -4 -16 -9 -18 -24
-9 -221 -360 -221 -395 0 -7 -4 -13 -10 -13 -5 0 -10 -7 -10 -15 0 -8 -4 -23
-9 -33 -43 -80 -123 -339 -137 -442 -3 -19 -9 -44 -14 -55 -10 -23 -19 -88
-26 -197 -3 -43 -9 -78 -13 -78 -11 0 -14 -387 -4 -393 5 -3 10 -45 12 -94 1
-48 7 -89 12 -91 5 -2 9 -28 9 -58 0 -30 5 -54 10 -54 6 0 10 -22 10 -49 0
-28 4 -53 10 -56 5 -3 10 -19 10 -35 0 -16 4 -32 10 -35 5 -3 10 -22 10 -41 0
-19 5 -34 10 -34 6 0 10 -13 10 -30 0 -16 5 -30 10 -30 6 0 10 -8 10 -18 0
-19 22 -81 70 -192 17 -41 34 -84 38 -95 3 -11 18 -42 34 -68 15 -26 28 -52
28 -57 0 -6 4 -10 8 -10 5 0 14 -16 22 -35 8 -19 17 -35 21 -35 3 0 12 -14 19
-30 7 -16 16 -30 21 -30 5 0 9 -6 9 -13 0 -7 9 -23 20 -35 12 -12 18 -22 15
-22 -3 0 3 -10 15 -22 11 -12 20 -28 20 -35 0 -7 5 -13 10 -13 6 0 10 -5 10
-11 0 -6 14 -24 30 -39 17 -15 30 -32 30 -37 0 -4 34 -44 75 -88 41 -44 75
-83 75 -87 0 -11 87 -98 98 -98 4 0 39 -29 77 -65 39 -36 74 -65 78 -65 5 0
22 -13 37 -30 15 -16 33 -30 39 -30 6 0 25 -14 43 -30 17 -17 35 -30 41 -30 8
0 28 -14 84 -60 7 -6 19 -10 28 -10 8 0 15 -4 15 -8 0 -5 16 -14 35 -22 19 -8
35 -17 35 -22 0 -4 7 -8 15 -8 8 0 15 -4 15 -8 0 -5 16 -14 35 -22 19 -8 35
-17 35 -22 0 -4 9 -8 20 -8 11 0 20 -4 20 -10 0 -5 7 -10 16 -10 9 0 44 -12
78 -26 33 -14 72 -31 86 -36 14 -6 33 -14 42 -19 10 -5 27 -9 37 -9 11 0 23
-4 26 -10 3 -5 17 -10 30 -10 13 0 27 -4 30 -10 3 -5 17 -10 30 -10 13 0 27
-4 30 -10 3 -5 22 -10 41 -10 19 0 34 -4 34 -10 0 -5 18 -10 40 -10 22 0 40
-4 40 -9 0 -9 39 -15 160 -27 30 -3 64 -9 75 -15 26 -13 588 -5 675 10 36 6
85 13 110 16 25 4 54 10 65 15 11 5 34 11 50 14 52 9 89 17 110 25 11 5 74 26
140 47 66 21 122 42 123 46 2 5 12 8 22 8 10 0 22 5 25 10 3 6 15 10 26 10 10
0 19 5 19 10 0 6 9 10 20 10 11 0 20 5 20 10 0 6 9 10 20 10 11 0 20 5 20 10
0 6 9 10 20 10 11 0 20 5 20 10 0 6 9 10 20 10 11 0 20 3 20 8 0 4 15 14 33
21 32 15 168 98 177 110 3 3 17 12 33 20 15 8 27 18 27 23 0 4 7 8 15 8 8 0
15 4 15 8 0 4 13 15 29 25 16 9 42 29 60 44 17 16 51 46 77 68 70 61 204 195
249 249 22 27 45 54 50 60 6 6 22 27 35 46 27 38 48 65 68 85 6 8 12 18 12 22
0 5 8 18 18 29 42 47 212 351 212 380 0 8 5 14 10 14 6 0 10 11 10 24 0 14 5
28 10 31 6 3 10 15 10 25 0 10 3 20 8 22 12 5 72 190 104 323 31 133 43 202
60 355 20 172 12 561 -12 615 -5 11 -11 40 -14 65 -7 65 -22 146 -41 215 -23
89 -67 229 -75 240 -4 6 -13 31 -21 58 -7 26 -17 47 -21 47 -4 0 -8 9 -8 20 0
11 -4 20 -10 20 -5 0 -10 11 -10 25 0 14 -4 25 -10 25 -5 0 -10 9 -10 20 0 11
-4 20 -10 20 -5 0 -10 9 -10 20 0 11 -4 20 -10 20 -5 0 -10 9 -10 20 0 11 -4
20 -10 20 -5 0 -10 4 -10 9 0 8 -29 63 -81 150 -8 14 -22 34 -31 45 -10 11
-18 25 -18 32 0 7 -4 14 -8 16 -5 2 -23 25 -42 53 -31 44 -55 75 -85 109 -6 6
-26 31 -45 56 -19 25 -77 88 -130 140 -81 81 -131 125 -263 230 -11 8 -25 21
-32 28 -8 6 -18 12 -24 12 -6 0 -11 5 -11 10 0 6 -7 10 -15 10 -8 0 -15 4 -15
8 0 5 -12 15 -27 23 -16 8 -30 16 -33 19 -27 27 -312 180 -336 180 -8 0 -14 5
-14 10 0 6 -9 10 -19 10 -11 0 -23 5 -26 10 -3 6 -15 10 -25 10 -10 0 -20 3
-22 8 -8 17 -351 122 -402 122 -14 0 -28 5 -31 10 -3 6 -28 10 -54 10 -26 0
-51 4 -57 9 -5 5 -40 12 -79 16 -121 10 -559 15 -580 5z m-885 -1400 c0 -5 9
-10 20 -10 11 0 20 -4 20 -9 0 -5 8 -11 18 -14 9 -4 44 -22 77 -42 33 -20 67
-39 75 -42 8 -4 17 -9 20 -12 8 -10 62 -40 103 -59 20 -9 37 -20 37 -24 0 -5
7 -8 15 -8 8 0 15 -4 15 -10 0 -5 9 -10 19 -10 11 0 21 -4 23 -8 2 -5 30 -23
63 -42 33 -18 93 -53 132 -77 40 -23 77 -43 83 -43 5 0 10 -4 10 -8 0 -5 16
-14 35 -22 19 -8 35 -17 35 -22 0 -4 9 -8 20 -8 11 0 20 -4 20 -9 0 -5 14 -14
30 -21 17 -7 30 -16 30 -21 0 -5 4 -9 9 -9 5 0 53 -25 106 -55 54 -30 103 -55
109 -55 6 0 22 9 36 20 14 11 31 20 38 20 6 0 12 4 12 9 0 5 8 11 18 14 9 3
44 22 77 42 33 20 68 38 78 42 9 3 17 8 17 12 0 4 16 13 35 21 19 8 35 17 35
21 0 4 8 9 18 12 17 6 72 37 82 47 3 3 30 18 60 34 30 16 66 37 80 46 14 9 40
23 58 31 17 8 32 17 32 21 0 5 7 8 15 8 8 0 15 5 15 10 0 6 7 10 15 10 8 0 15
5 15 10 0 6 9 10 20 10 11 0 20 3 20 8 0 4 10 12 23 18 44 22 162 88 167 93 3
3 22 16 44 27 l39 22 41 -22 c22 -11 43 -24 46 -27 5 -5 123 -71 167 -93 13
-6 23 -14 23 -18 0 -5 9 -8 20 -8 11 0 20 -4 20 -10 0 -5 6 -10 13 -10 7 0 23
-9 35 -20 12 -11 28 -20 36 -20 8 0 16 -3 18 -7 4 -10 43 -33 123 -75 33 -17
62 -33 65 -37 5 -6 14 -11 89 -53 20 -11 42 -25 49 -30 9 -8 12 -158 12 -692
-1 -701 -1 -716 -39 -716 -6 0 -11 -4 -11 -10 0 -5 -6 -10 -13 -10 -7 0 -23
-9 -35 -20 -12 -11 -24 -20 -27 -20 -4 0 -58 -34 -121 -75 -63 -41 -119 -75
-124 -75 -6 0 -10 -4 -10 -9 0 -5 -13 -14 -30 -21 -16 -7 -30 -16 -30 -21 0
-5 -5 -9 -11 -9 -6 0 -31 -14 -56 -32 l-46 -31 -46 24 c-25 13 -48 26 -51 29
-9 10 -65 41 -82 47 -10 3 -18 8 -18 12 0 4 -16 13 -35 21 -19 8 -35 17 -35
22 0 4 -6 8 -13 8 -7 0 -23 9 -35 20 -12 11 -26 20 -32 20 -6 0 -28 11 -50 25
-22 14 -42 25 -44 25 -9 0 -111 65 -114 73 -2 4 -12 7 -23 7 -10 0 -19 5 -19
10 0 6 -7 10 -15 10 -8 0 -15 5 -15 10 0 6 -7 10 -15 10 -8 0 -15 5 -15 10 0
6 -9 10 -20 10 -11 0 -20 5 -20 10 0 6 -7 10 -15 10 -8 0 -15 5 -15 10 0 6 -9
10 -19 10 -11 0 -21 4 -23 8 -3 8 -58 41 -143 86 -22 11 -42 23 -45 26 -3 3
-17 11 -32 19 -16 8 -28 18 -28 23 0 4 -9 8 -20 8 -11 0 -20 5 -20 10 0 6 -6
10 -14 10 -8 0 -16 3 -18 8 -1 4 -37 25 -78 46 -41 22 -77 42 -80 45 -8 9 -49
31 -59 31 -11 0 -165 -93 -169 -102 -2 -5 -9 -8 -16 -8 -7 0 -21 -8 -32 -18
-10 -10 -34 -25 -51 -32 -18 -8 -33 -18 -33 -22 0 -5 -6 -8 -13 -8 -7 0 -23
-9 -35 -20 -12 -11 -24 -20 -27 -20 -10 0 -85 -53 -85 -60 0 -3 12 -13 28 -21
15 -8 29 -17 32 -20 3 -3 25 -16 50 -30 25 -13 47 -27 50 -30 3 -3 20 -12 38
-20 17 -8 32 -17 32 -21 0 -5 4 -8 9 -8 10 0 110 -56 241 -134 25 -15 53 -29
63 -33 9 -3 17 -9 17 -14 0 -5 9 -9 20 -9 11 0 20 -4 20 -10 0 -5 7 -10 15
-10 8 0 15 -4 15 -10 0 -5 4 -10 9 -10 9 0 92 -46 176 -97 22 -13 47 -26 56
-29 14 -5 16 -20 13 -106 -2 -55 -4 -101 -6 -102 -2 0 -14 -7 -28 -15 -14 -8
-42 -24 -62 -35 -21 -11 -38 -23 -38 -28 0 -4 -9 -8 -20 -8 -11 0 -20 -4 -20
-10 0 -5 -7 -10 -15 -10 -8 0 -15 -4 -15 -9 0 -5 -8 -11 -17 -14 -18 -6 -73
-37 -83 -47 -3 -3 -22 -14 -42 -25 l-37 -19 -43 21 c-61 31 -102 57 -106 66
-2 4 -11 7 -21 7 -9 0 -23 9 -31 20 -8 11 -22 20 -32 20 -10 0 -18 3 -18 8 0
4 -15 13 -32 21 -18 8 -35 17 -38 20 -3 4 -30 19 -60 35 -30 16 -57 32 -60 35
-8 9 -62 40 -102 59 -21 9 -38 20 -38 24 0 5 -7 8 -15 8 -8 0 -15 5 -15 10 0
6 -7 10 -15 10 -9 0 -25 9 -37 20 -12 11 -28 20 -35 20 -7 0 -13 5 -13 10 0 6
-5 10 -10 10 -14 0 -174 92 -178 102 -2 4 -12 8 -23 8 -10 0 -19 5 -19 10 0 6
-7 10 -15 10 -8 0 -15 4 -15 8 0 5 -16 14 -35 22 -19 8 -35 17 -35 22 0 4 -7
8 -15 8 -8 0 -15 5 -15 10 0 6 -9 10 -20 10 -11 0 -20 4 -20 8 0 4 -19 18 -42
30 -24 12 -65 35 -93 52 -27 16 -65 37 -82 46 -18 9 -33 20 -33 25 0 5 -9 9
-20 9 -11 0 -20 4 -20 9 0 5 -8 11 -17 14 -10 4 -45 22 -78 42 -33 20 -68 39
-77 42 -10 3 -18 8 -18 12 0 3 -21 17 -47 31 -27 14 -54 30 -60 37 -10 9 -13
160 -13 687 l0 676 33 20 c17 10 37 24 44 29 7 6 19 11 28 11 8 0 15 4 15 8 0
5 21 20 48 33 26 13 49 27 50 32 2 4 10 7 18 7 8 0 14 5 14 10 0 6 4 10 9 10
8 0 56 26 171 93 19 11 52 29 73 40 20 12 37 24 37 29 0 4 14 8 30 8 17 0 30
-4 30 -10z"/>
<path d="M845 3348 c-3 -7 -4 -303 -3 -658 l3 -644 40 -22 c22 -13 45 -27 52
-33 7 -6 15 -11 18 -11 3 0 35 -18 71 -40 36 -22 70 -40 75 -40 5 0 9 -4 9
-10 0 -5 7 -10 15 -10 9 0 25 -9 37 -20 12 -11 28 -20 35 -20 7 0 13 -4 13
-10 0 -5 4 -10 9 -10 12 0 175 -93 179 -102 2 -4 10 -8 18 -8 8 0 24 -9 36
-20 12 -11 28 -20 35 -20 7 0 13 -4 13 -10 0 -5 9 -10 20 -10 11 0 20 -4 20
-10 0 -5 7 -10 15 -10 8 0 15 -4 15 -10 0 -5 9 -10 20 -10 11 0 20 -4 20 -8 0
-5 15 -16 33 -25 17 -9 59 -32 92 -52 33 -19 75 -43 93 -52 17 -9 32 -20 32
-25 0 -4 7 -8 15 -8 9 0 25 -9 37 -20 12 -11 28 -20 35 -20 7 0 13 -4 13 -10
0 -5 9 -10 20 -10 11 0 20 -4 20 -10 0 -5 7 -10 15 -10 8 0 15 -4 15 -10 0 -5
4 -10 9 -10 9 0 92 -46 176 -97 22 -13 48 -26 58 -30 9 -3 17 -9 17 -14 0 -5
7 -9 15 -9 8 0 15 -4 15 -10 0 -5 9 -10 20 -10 11 0 20 -4 20 -10 0 -5 6 -10
14 -10 8 0 16 -3 18 -7 3 -8 103 -63 113 -63 3 0 5 27 5 60 0 48 -4 62 -17 68
-10 4 -58 31 -106 59 -48 29 -92 53 -97 53 -6 0 -10 3 -10 8 0 4 -15 13 -32
21 -18 8 -35 17 -38 20 -8 10 -64 42 -82 48 -10 3 -18 9 -18 14 0 5 -4 9 -10
9 -5 0 -44 20 -86 45 -41 25 -79 45 -84 45 -5 0 -10 3 -12 8 -4 9 -57 41 -80
49 -10 3 -18 9 -18 14 0 5 -9 9 -20 9 -11 0 -20 5 -20 10 0 6 -6 10 -14 10 -8
0 -16 3 -18 8 -1 4 -28 20 -58 36 -30 16 -62 34 -70 41 -8 7 -40 25 -70 41
-30 16 -56 32 -58 37 -2 4 -10 7 -18 7 -8 0 -14 5 -14 10 0 6 -9 10 -20 10
-11 0 -20 5 -20 10 0 6 -7 10 -15 10 -8 0 -15 4 -15 8 0 5 -16 14 -35 22 -19
8 -35 17 -35 22 0 4 -5 8 -11 8 -6 0 -23 8 -37 18 -15 11 -52 32 -82 48 -30
16 -57 31 -60 35 -3 3 -20 12 -37 20 -18 8 -33 17 -33 21 0 5 -7 8 -15 8 -8 0
-15 5 -15 10 0 6 -7 10 -15 10 -8 0 -15 5 -15 10 0 6 -9 10 -20 10 -11 0 -20
4 -20 9 0 5 -9 11 -20 14 -20 5 -20 14 -20 546 0 298 3 541 6 541 3 0 18 -8
32 -18 15 -10 59 -36 97 -57 39 -21 72 -42 73 -47 2 -4 12 -8 23 -8 10 0 19
-4 19 -8 0 -5 21 -20 48 -33 26 -13 49 -27 50 -31 2 -5 10 -8 18 -8 8 0 14 -4
14 -10 0 -5 9 -10 20 -10 11 0 20 -3 20 -7 0 -5 26 -21 58 -38 31 -16 59 -32
62 -35 6 -6 35 -23 93 -54 20 -11 37 -23 37 -28 0 -4 9 -8 20 -8 11 0 20 -4
20 -10 0 -5 7 -10 15 -10 8 0 15 -4 15 -8 0 -5 16 -14 35 -22 19 -8 35 -16 35
-19 0 -4 15 -12 33 -20 17 -8 39 -19 47 -26 8 -7 35 -23 60 -36 25 -13 47 -26
50 -29 3 -3 19 -12 35 -20 17 -8 32 -17 35 -20 10 -10 65 -41 83 -47 9 -3 17
-9 17 -14 0 -5 4 -9 10 -9 5 0 44 -20 86 -45 41 -25 80 -45 85 -45 5 0 9 -4 9
-10 0 -5 7 -10 15 -10 9 0 25 -9 37 -20 12 -11 28 -20 35 -20 7 0 13 -4 13
-10 0 -5 9 -10 20 -10 11 0 20 -4 20 -10 0 -5 7 -10 15 -10 8 0 15 -4 15 -10
0 -5 9 -10 20 -10 11 0 20 -4 20 -8 0 -5 12 -15 28 -23 15 -8 29 -16 32 -19 3
-3 28 -17 55 -32 28 -14 69 -37 93 -49 23 -13 42 -26 42 -31 0 -4 7 -8 15 -8
9 0 25 -9 37 -20 12 -11 28 -20 35 -20 7 0 13 -4 13 -10 0 -5 9 -10 20 -10 11
0 20 -4 20 -10 0 -5 7 -10 15 -10 8 0 15 -4 15 -10 0 -5 9 -10 20 -10 11 0 20
-3 20 -7 0 -5 27 -21 60 -38 33 -16 60 -32 60 -36 0 -4 8 -9 18 -12 9 -4 40
-20 67 -37 28 -17 58 -33 68 -37 9 -3 17 -9 17 -14 0 -5 9 -9 20 -9 11 0 20
-4 20 -8 0 -5 28 -23 63 -41 85 -46 181 -104 185 -113 2 -5 12 -8 23 -8 10 0
19 -4 19 -10 0 -5 7 -10 15 -10 8 0 15 -4 15 -8 0 -5 16 -14 35 -22 19 -8 35
-17 35 -22 0 -4 7 -8 15 -8 8 0 15 -4 15 -10 0 -5 9 -10 20 -10 11 0 20 -4 20
-10 0 -5 9 -10 20 -10 20 0 20 7 20 684 0 676 0 685 -20 691 -11 3 -20 11 -20
16 0 5 -9 9 -20 9 -11 0 -20 4 -20 9 0 5 -8 11 -17 14 -10 4 -38 18 -62 32
-24 14 -46 23 -49 20 -9 -9 -10 -98 -1 -115 4 -8 25 -24 46 -35 21 -11 44 -25
51 -32 9 -9 12 -135 12 -562 0 -614 5 -574 -70 -526 -22 14 -44 25 -50 25 -5
0 -10 5 -10 10 0 6 -6 10 -13 10 -7 0 -23 9 -35 20 -12 11 -28 20 -37 20 -8 0
-15 5 -15 10 0 6 -9 10 -20 10 -11 0 -20 5 -20 10 0 6 -7 10 -15 10 -8 0 -15
5 -15 10 0 6 -5 10 -10 10 -6 0 -43 20 -83 43 -39 24 -92 55 -117 68 -25 13
-46 27 -48 32 -2 4 -10 7 -18 7 -8 0 -14 5 -14 10 0 6 -9 10 -20 10 -11 0 -20
4 -20 9 0 5 -13 14 -30 21 -16 7 -30 16 -30 21 0 5 -9 9 -20 9 -11 0 -20 5
-20 10 0 6 -5 10 -11 10 -6 0 -23 8 -37 18 -15 11 -52 32 -82 48 -30 16 -57
31 -60 34 -10 10 -65 41 -82 47 -10 3 -18 9 -18 14 0 5 -7 9 -15 9 -8 0 -15 5
-15 10 0 6 -9 10 -20 10 -11 0 -20 4 -20 9 0 5 -8 11 -17 15 -10 3 -32 13 -48
23 -49 29 -128 76 -160 96 -16 9 -38 20 -47 23 -10 4 -18 10 -18 15 0 5 -9 9
-20 9 -11 0 -20 4 -20 8 0 5 -28 23 -62 42 -35 18 -65 36 -68 39 -3 3 -30 19
-60 35 -30 16 -66 37 -80 46 -14 9 -40 23 -57 31 -18 8 -33 17 -33 21 0 5 -7
8 -15 8 -8 0 -15 5 -15 10 0 6 -7 10 -15 10 -8 0 -15 5 -15 10 0 6 -9 10 -20
10 -11 0 -20 3 -20 8 0 4 -10 12 -23 18 -44 22 -142 77 -157 89 -8 7 -22 15
-30 18 -8 4 -37 20 -65 37 -27 17 -58 33 -67 37 -10 3 -18 9 -18 14 0 5 -9 9
-20 9 -11 0 -20 4 -20 9 0 5 -15 16 -32 25 -18 9 -60 32 -93 52 -33 19 -75 42
-92 51 -18 9 -33 20 -33 25 0 4 -9 8 -20 8 -11 0 -20 5 -20 10 0 6 -7 10 -15
10 -8 0 -15 4 -15 8 0 5 -16 14 -35 22 -19 8 -35 17 -35 22 0 4 -7 8 -15 8 -8
0 -15 5 -15 10 0 6 -9 10 -20 10 -11 0 -20 4 -20 8 0 4 -20 18 -45 30 -34 16
-47 19 -50 10z"/>
<path d="M3510 3022 c0 -4 -21 -18 -47 -32 -27 -13 -50 -27 -53 -30 -3 -3 -16
-11 -30 -19 -111 -64 -143 -81 -151 -81 -5 0 -9 -4 -9 -10 0 -5 -6 -10 -13
-10 -7 0 -22 -8 -33 -18 -10 -10 -34 -25 -51 -32 -32 -15 -46 -50 -20 -50 6 0
23 -9 37 -20 14 -11 32 -20 41 -20 20 0 69 23 69 33 0 4 7 7 15 7 8 0 15 5 15
10 0 6 9 10 20 10 11 0 20 5 20 10 0 6 6 10 14 10 8 0 16 3 18 8 4 9 57 41 81
49 9 3 17 9 17 14 0 5 5 9 10 9 6 0 28 11 50 25 39 25 40 26 40 85 0 53 -2 60
-20 60 -11 0 -20 -3 -20 -8z"/>
<path d="M1327 2933 c-11 -11 -8 -541 3 -548 6 -3 10 -1 10 4 0 6 9 11 19 11
11 0 21 4 23 9 2 5 30 22 63 39 80 42 119 65 123 75 2 4 12 7 23 7 10 0 19 3
19 8 0 4 21 18 48 32 26 13 49 27 52 30 3 3 19 12 35 20 40 20 60 40 49 49 -5
5 -29 19 -54 32 -25 13 -47 26 -50 29 -3 3 -17 11 -32 19 -16 8 -28 18 -28 23
0 4 -9 8 -20 8 -11 0 -20 4 -20 8 0 5 -16 14 -35 22 -19 8 -35 17 -35 22 0 4
-6 8 -14 8 -8 0 -16 4 -18 8 -1 4 -23 18 -48 30 -25 13 -59 32 -76 42 -17 11
-34 17 -37 13z"/>
<path d="M3521 2873 c-17 -9 -31 -19 -31 -24 0 -5 -9 -9 -20 -9 -11 0 -20 -4
-20 -10 0 -5 -7 -10 -15 -10 -8 0 -15 -4 -15 -8 0 -5 -16 -14 -35 -22 -19 -8
-35 -17 -35 -22 0 -4 -7 -8 -15 -8 -8 0 -15 -4 -15 -10 0 -5 -9 -10 -20 -10
-11 0 -20 -4 -20 -9 0 -5 -13 -14 -30 -21 -37 -15 -38 -32 -2 -51 15 -8 29
-16 32 -19 10 -10 65 -41 83 -47 9 -3 17 -8 17 -12 0 -4 16 -13 35 -21 19 -8
35 -17 35 -22 0 -4 9 -8 19 -8 11 0 21 -4 23 -9 3 -8 149 -91 161 -91 4 0 7
91 7 203 l0 203 -35 14 c-19 8 -35 17 -35 21 0 15 -40 16 -69 2z"/>
<path d="M2326 2319 c-11 -10 -25 -19 -33 -19 -7 0 -13 -4 -13 -10 0 -5 -4
-10 -10 -10 -5 0 -43 -22 -85 -49 -42 -28 -85 -53 -95 -56 -11 -4 -20 -10 -20
-14 0 -5 -13 -14 -30 -21 -16 -7 -30 -15 -30 -19 0 -3 -15 -13 -32 -20 -34
-15 -85 -58 -78 -64 22 -17 85 -47 98 -47 9 0 28 9 42 20 14 11 31 20 38 20 6
0 12 5 12 10 0 6 6 10 13 10 7 0 23 9 35 20 12 11 28 20 37 20 8 0 15 5 15 10
0 6 7 10 15 10 8 0 15 5 15 10 0 6 6 10 13 10 7 0 23 9 35 20 12 11 24 20 27
20 4 0 38 20 76 45 38 25 74 45 79 45 6 0 10 3 10 8 0 15 -16 29 -47 43 -18 8
-33 17 -33 21 0 15 -35 7 -54 -13z"/>
<path d="M2865 1387 c-11 -7 -22 -14 -25 -17 -10 -10 -65 -41 -82 -47 -10 -3
-18 -9 -18 -14 0 -5 -4 -9 -9 -9 -13 0 -135 -73 -139 -82 -2 -5 -10 -8 -19 -8
-29 0 -43 -27 -43 -84 0 -31 3 -56 6 -56 11 0 89 45 92 53 2 4 12 7 23 7 10 0
19 5 19 10 0 6 7 10 15 10 8 0 15 5 15 10 0 6 9 10 20 10 11 0 20 4 20 9 0 5
14 14 30 21 17 7 30 15 30 19 0 3 23 17 50 30 l50 25 0 63 c0 66 -2 69 -35 50z"/>
</g>
</svg>
